<?xml version="1.0" encoding="utf-8"?>
<svg xmlns="http://www.w3.org/2000/svg" xmlns:xlink="http://www.w3.org/1999/xlink" style="margin: auto; background: rgb(246, 245, 251); display: block; z-index: 1; position: relative; shape-rendering: auto;" width="2060" height="937" preserveAspectRatio="xMidYMid" viewBox="0 0 2060 937">
<g transform=""><defs>
  <path id="path-oufmkmay0r-1" d="M-35 -35L35 -35L35 35L-35 35Z" fill="none" stroke="inherit" stroke-width="7.719298245614035" transform="scale(0.5700000000000001)"></path>
  <path id="path-oufmkmay0r-2" d="M0 -37A37 37 0 0 1 0 37A37 37 0 0 1 0 -37" fill="none" stroke="inherit" stroke-width="7.719298245614035" transform="scale(0.5700000000000001)"></path>
  <path id="path-oufmkmay0r-3" d="M0 -34.641L40 34.641L-40 34.641Z" fill="none" stroke="inherit" stroke-width="7.719298245614035" transform="scale(0.5700000000000001)"></path>
</defs><path id="path0" d="M 83.70354502760974 614.1832998112079
c 0 53.90525350773027 -13.189583305082937 15.483423879879973 -28.673007184962913 15.483423879879973
S 26.35753065768391 668.0885533189382 26.35753065768391 614.1832998112079
s 13.189583305082937 -15.483423879879973 28.673007184962913 -15.483423879879973
S 83.70354502760974 560.2780463034776 83.70354502760974 614.1832998112079
z" fill="none" stroke="none"></path>
<use xlink:href="#path-oufmkmay0r-1" x="0" y="0" stroke="#ffde3e">
  <animateMotion begin="-3.9301733453485004s" dur="14.219620846494779s" keyPoints="0;1" keyTimes="0;1" repeatCount="indefinite" calcMode="linear">
    <mpath xlink:href="#path0"></mpath>
  </animateMotion>
</use><path id="path1" d="M 583.6713950838387 276.61001382885655
c 0 62.54675373188407 -15.303992934397163 17.96555692298798 -33.269549857385144 17.96555692298798
S 517.1322953690683 339.1567675607406 517.1322953690683 276.61001382885655
s 15.303992934397163 -17.96555692298798 33.269549857385144 -17.96555692298798
S 583.6713950838387 214.0632600969725 583.6713950838387 276.61001382885655
z" fill="none" stroke="none"></path>
<use xlink:href="#path-oufmkmay0r-2" x="0" y="0" stroke="rgba(20, 220, 147, 0.42949596774193555)">
  <animateMotion begin="-3.96692439009709s" dur="12.754278591979217s" keyPoints="1;0" keyTimes="0;1" repeatCount="indefinite" calcMode="linear">
    <mpath xlink:href="#path1"></mpath>
  </animateMotion>
</use><path id="path2" d="M 1055.115938930934 103.76466705822217
c 0 49.05431341400722 -12.002651154491128 14.090068746576542 -26.092719901067667 14.090068746576542
S 1002.9304991287985 152.81898047222938 1002.9304991287985 103.76466705822217
s 12.002651154491128 -14.090068746576542 26.092719901067667 -14.090068746576542
S 1055.115938930934 54.710353644214955 1055.115938930934 103.76466705822217
z" fill="none" stroke="none"></path>
<use xlink:href="#path-oufmkmay0r-1" x="0" y="0" stroke="rgba(251, 121, 63, 0.31207661290322586)">
  <animateMotion begin="-3.266092674230272s" dur="8.52901204869839s" keyPoints="0;1" keyTimes="0;1" repeatCount="indefinite" calcMode="linear">
    <mpath xlink:href="#path2"></mpath>
  </animateMotion>
</use><path id="path3" d="M 1133.3397622073096 69.81649993996464
c 0 60.87645973591988 -14.895303977937841 17.48579162627486 -32.3810956042127 17.48579162627486
S 1068.577570998884 130.69295967588454 1068.577570998884 69.81649993996464
s 14.895303977937841 -17.48579162627486 32.3810956042127 -17.48579162627486
S 1133.3397622073096 8.940040204044763 1133.3397622073096 69.81649993996464
z" fill="none" stroke="none"></path>
<use xlink:href="#path-oufmkmay0r-2" x="0" y="0" stroke="rgba(251, 121, 63, 0.31207661290322586)">
  <animateMotion begin="-3.432546836268233s" dur="9.192594675265008s" keyPoints="1;0" keyTimes="0;1" repeatCount="indefinite" calcMode="linear">
    <mpath xlink:href="#path3"></mpath>
  </animateMotion>
</use><path id="path4" d="M 1645.1274137059459 878.6363670687462
c 0 41.710184772530496 -10.205683508172354 11.980584987854504 -22.18626849602686 11.980584987854504
S 1600.754876713892 920.3465518412767 1600.754876713892 878.6363670687462
s 10.205683508172354 -11.980584987854504 22.18626849602686 -11.980584987854504
S 1645.1274137059459 836.9261822962156 1645.1274137059459 878.6363670687462
z" fill="none" stroke="none"></path>
<use xlink:href="#path-oufmkmay0r-1" x="0" y="0" stroke="#ffde3e">
  <animateMotion begin="-0.898350260787746s" dur="14.656801565318238s" keyPoints="0;1" keyTimes="0;1" repeatCount="indefinite" calcMode="linear">
    <mpath xlink:href="#path4"></mpath>
  </animateMotion>
</use><path id="path5" d="M 1968.1268996828064 539.385864468993
c 0 41.00811546048703 -10.033900591395764 11.778926781203722 -21.812827372599486 11.778926781203722
S 1924.5012449376075 580.39397992948 1924.5012449376075 539.385864468993
s 10.033900591395764 -11.778926781203722 21.812827372599486 -11.778926781203722
S 1968.1268996828064 498.37774900850593 1968.1268996828064 539.385864468993
z" fill="none" stroke="none"></path>
<use xlink:href="#path-oufmkmay0r-1" x="0" y="0" stroke="#ffde3e">
  <animateMotion begin="-3.264582033424519s" dur="12.612980261986305s" keyPoints="1;0" keyTimes="0;1" repeatCount="indefinite" calcMode="linear">
    <mpath xlink:href="#path5"></mpath>
  </animateMotion>
</use></g>
</svg>