<?xml version="1.0" encoding="utf-8"?>
<svg xmlns="http://www.w3.org/2000/svg" xmlns:xlink="http://www.w3.org/1999/xlink" style="margin: auto; background: rgb(246, 245, 251); display: block; z-index: 1; position: relative; shape-rendering: auto;" width="1920" height="2000" preserveAspectRatio="xMidYMid" viewBox="0 0 1920 2000">
<g transform=""><defs>
  <path id="path-ar3oknvycr4-1" d="M-35 -35L35 -35L35 35L-35 35Z" fill="none" stroke="inherit" stroke-width="4.333333333333334" transform="scale(0.3)"></path>
  <path id="path-ar3oknvycr4-2" d="M0 -37A37 37 0 0 1 0 37A37 37 0 0 1 0 -37" fill="none" stroke="inherit" stroke-width="4.333333333333334" transform="scale(0.3)"></path>
  <path id="path-ar3oknvycr4-3" d="M0 -34.641L40 34.641L-40 34.641Z" fill="none" stroke="inherit" stroke-width="4.333333333333334" transform="scale(0.3)"></path>
</defs><path id="path0" d="M 68.54468075518643 745.8097608711108
c 0 34.81287462481245 -8.518043791177513 9.999442711382299 -18.517486502559812 9.999442711382299
S 31.50970775006681 780.6226354959233 31.50970775006681 745.8097608711108
s 8.518043791177513 -9.999442711382299 18.517486502559812 -9.999442711382299
S 68.54468075518643 710.9968862462983 68.54468075518643 745.8097608711108
z" fill="none" stroke="none"></path>
<use xlink:href="#path-ar3oknvycr4-3" x="0" y="0" stroke="#bbddff">
  <animateMotion begin="-4.4554795062912085s" dur="17.623402130931357s" keyPoints="0;1" keyTimes="0;1" repeatCount="indefinite" calcMode="linear">
    <mpath xlink:href="#path0"></mpath>
  </animateMotion>
</use><path id="path1" d="M 187.30592744691742 418.74136279646893
c 0 52.90295903857309 -12.944341041352988 15.195530787675247 -28.139871829028237 15.195530787675247
S 131.02618378886095 471.64432183504204 131.02618378886095 418.74136279646893
s 12.944341041352988 -15.195530787675247 28.139871829028237 -15.195530787675247
S 187.30592744691742 365.83840375789583 187.30592744691742 418.74136279646893
z" fill="none" stroke="none"></path>
<use xlink:href="#path-ar3oknvycr4-1" x="0" y="0" stroke="#fb793f">
  <animateMotion begin="-4.744933917123907s" dur="11.176274265992173s" keyPoints="0;1" keyTimes="0;1" repeatCount="indefinite" calcMode="linear">
    <mpath xlink:href="#path1"></mpath>
  </animateMotion>
</use><path id="path2" d="M 279.99216252336834 1340.7686562699278
c 0 21.44169166544438 -5.246371364949156 6.158783776244663 -11.40515514119382 6.158783776244663
S 257.18185224098073 1362.210347935372 257.18185224098073 1340.7686562699278
s 5.246371364949156 -6.158783776244663 11.40515514119382 -6.158783776244663
S 279.99216252336834 1319.3269646044835 279.99216252336834 1340.7686562699278
z" fill="none" stroke="none"></path>
<use xlink:href="#path-ar3oknvycr4-1" x="0" y="0" stroke="#14dc93">
  <animateMotion begin="-4.930771905999157s" dur="19.13569545049191s" keyPoints="1;0" keyTimes="0;1" repeatCount="indefinite" calcMode="linear">
    <mpath xlink:href="#path2"></mpath>
  </animateMotion>
</use><path id="path3" d="M 350.3636287331112 1940.9775065576027
c 0 28.491690385243523 -6.971371051708521 8.183783408527395 -15.155154460235917 8.183783408527395
S 320.0533198126394 1969.4691969428463 320.0533198126394 1940.9775065576027
s 6.971371051708521 -8.183783408527395 15.155154460235917 -8.183783408527395
S 350.3636287331112 1912.4858161723591 350.3636287331112 1940.9775065576027
z" fill="none" stroke="none"></path>
<use xlink:href="#path-ar3oknvycr4-1" x="0" y="0" stroke="#bbddff">
  <animateMotion begin="-2.4358504895186472s" dur="16.400692194479443s" keyPoints="1;0" keyTimes="0;1" repeatCount="indefinite" calcMode="linear">
    <mpath xlink:href="#path3"></mpath>
  </animateMotion>
</use><path id="path4" d="M 515.8173421779046 157.43952092297928
c 0 40.65288204625183 -9.946981777274383 11.676891651582974 -21.623873428857358 11.676891651582974
S 472.5695953201899 198.0924029692311 472.5695953201899 157.43952092297928
s 9.946981777274383 -11.676891651582974 21.623873428857358 -11.676891651582974
S 515.8173421779046 116.78663887672745 515.8173421779046 157.43952092297928
z" fill="none" stroke="none"></path>
<use xlink:href="#path-ar3oknvycr4-1" x="0" y="0" stroke="#fb793f">
  <animateMotion begin="-0.714395223591785s" dur="15.399715332396951s" keyPoints="1;0" keyTimes="0;1" repeatCount="indefinite" calcMode="linear">
    <mpath xlink:href="#path4"></mpath>
  </animateMotion>
</use><path id="path5" d="M 618.8625915566059 304.530214584281
c 0 45.49155537949698 -11.130912486472663 13.066723353685303 -24.197635840157968 13.066723353685303
S 570.4673198762899 350.02176996377796 570.4673198762899 304.530214584281
s 11.130912486472663 -13.066723353685303 24.197635840157968 -13.066723353685303
S 618.8625915566059 259.03865920478404 618.8625915566059 304.530214584281
z" fill="none" stroke="none"></path>
<use xlink:href="#path-ar3oknvycr4-3" x="0" y="0" stroke="#bbddff">
  <animateMotion begin="-0.5251270448958778s" dur="14.43680730911562s" keyPoints="1;0" keyTimes="0;1" repeatCount="indefinite" calcMode="linear">
    <mpath xlink:href="#path5"></mpath>
  </animateMotion>
</use><path id="path6" d="M 774.4715138408939 244.6179792828274
c 0 50.563937366097925 -12.372027227875023 14.52368413707068 -26.895711364945704 14.52368413707068
S 720.6800911110025 295.1819166489253 720.6800911110025 244.6179792828274
s 12.372027227875023 -14.52368413707068 26.895711364945704 -14.52368413707068
S 774.4715138408939 194.0540419167295 774.4715138408939 244.6179792828274
z" fill="none" stroke="none"></path>
<use xlink:href="#path-ar3oknvycr4-1" x="0" y="0" stroke="#fb793f">
  <animateMotion begin="-4.531578802649597s" dur="10.12741070380171s" keyPoints="1;0" keyTimes="0;1" repeatCount="indefinite" calcMode="linear">
    <mpath xlink:href="#path6"></mpath>
  </animateMotion>
</use><path id="path7" d="M 835.1853299635043 927.9542092995421
c 0 60.488037309044586 -14.800264447957716 17.374223482385148 -32.17448793034286 17.374223482385148
S 770.8363541028186 988.4422466085866 770.8363541028186 927.9542092995421
s 14.800264447957716 -17.374223482385148 32.17448793034286 -17.374223482385148
S 835.1853299635043 867.4661719904975 835.1853299635043 927.9542092995421
z" fill="none" stroke="none"></path>
<use xlink:href="#path-ar3oknvycr4-3" x="0" y="0" stroke="#fb793f">
  <animateMotion begin="-1.564171266958696s" dur="14.221163643042129s" keyPoints="1;0" keyTimes="0;1" repeatCount="indefinite" calcMode="linear">
    <mpath xlink:href="#path7"></mpath>
  </animateMotion>
</use><path id="path8" d="M 939.1217008736288 234.03722401086983
c 0 62.61951488299978 -15.32179619477654 17.986456402563768 -33.30825259734031 17.986456402563768
S 872.5051956789481 296.6567388938696 872.5051956789481 234.03722401086983
s 15.32179619477654 -17.986456402563768 33.30825259734031 -17.986456402563768
S 939.1217008736288 171.41770912787007 939.1217008736288 234.03722401086983
z" fill="none" stroke="none"></path>
<use xlink:href="#path-ar3oknvycr4-1" x="0" y="0" stroke="#fb793f">
  <animateMotion begin="-3.7705691565759567s" dur="14.809971367554029s" keyPoints="0;1" keyTimes="0;1" repeatCount="indefinite" calcMode="linear">
    <mpath xlink:href="#path8"></mpath>
  </animateMotion>
</use><path id="path9" d="M 989.6557277903177 923.5348124532807
c 0 49.39489343946297 -12.08598456497498 14.187894924101066 -26.273879489076045 14.187894924101066
S 937.1079688121655 972.9297058927436 937.1079688121655 923.5348124532807
s 12.08598456497498 -14.187894924101066 26.273879489076045 -14.187894924101066
S 989.6557277903177 874.1399190138177 989.6557277903177 923.5348124532807
z" fill="none" stroke="none"></path>
<use xlink:href="#path-ar3oknvycr4-2" x="0" y="0" stroke="#bbddff">
  <animateMotion begin="-4.788090282450881s" dur="13.324370009010364s" keyPoints="1;0" keyTimes="0;1" repeatCount="indefinite" calcMode="linear">
    <mpath xlink:href="#path9"></mpath>
  </animateMotion>
</use><path id="path10" d="M 1079.1814134692113 970.4880170632383
c 0 19.425097477844304 -4.752949382876797 5.579549275551023 -10.33249865842782 5.579549275551023
S 1058.5164161523558 989.9131145410827 1058.5164161523558 970.4880170632383
s 4.752949382876797 -5.579549275551023 10.33249865842782 -5.579549275551023
S 1079.1814134692113 951.062919585394 1079.1814134692113 970.4880170632383
z" fill="none" stroke="none"></path>
<use xlink:href="#path-ar3oknvycr4-1" x="0" y="0" stroke="#14dc93">
  <animateMotion begin="-0.1950240281305049s" dur="16.018342015172163s" keyPoints="0;1" keyTimes="0;1" repeatCount="indefinite" calcMode="linear">
    <mpath xlink:href="#path10"></mpath>
  </animateMotion>
</use><path id="path11" d="M 1260.2573390871453 1040.8458689626482
c 0 57.5564485416794 -14.08296081338964 16.53217138963132 -30.61513220302096 16.53217138963132
S 1199.0270746811034 1098.4023175043276 1199.0270746811034 1040.8458689626482
s 14.08296081338964 -16.53217138963132 30.61513220302096 -16.53217138963132
S 1260.2573390871453 983.2894204209688 1260.2573390871453 1040.8458689626482
z" fill="none" stroke="none"></path>
<use xlink:href="#path-ar3oknvycr4-3" x="0" y="0" stroke="#fb793f">
  <animateMotion begin="-4.885952929797954s" dur="12.315279424581727s" keyPoints="0;1" keyTimes="0;1" repeatCount="indefinite" calcMode="linear">
    <mpath xlink:href="#path11"></mpath>
  </animateMotion>
</use><path id="path12" d="M 1293.4257444286827 1365.745337055052
c 0 31.276725149848822 -7.652815728154498 8.98374020261615 -16.636555930770648 8.98374020261615
S 1260.1526325671416 1397.0220622049007 1260.1526325671416 1365.745337055052
s 7.652815728154498 -8.98374020261615 16.636555930770648 -8.98374020261615
S 1293.4257444286827 1334.4686119052033 1293.4257444286827 1365.745337055052
z" fill="none" stroke="none"></path>
<use xlink:href="#path-ar3oknvycr4-2" x="0" y="0" stroke="#14dc93">
  <animateMotion begin="-4.117704590708186s" dur="13.669504197472095s" keyPoints="1;0" keyTimes="0;1" repeatCount="indefinite" calcMode="linear">
    <mpath xlink:href="#path12"></mpath>
  </animateMotion>
</use><path id="path13" d="M 1458.7699284216153 1181.761606724972
c 0 21.587278103828744 -5.281993578596395 6.2006011574827244 -11.482594736079118 6.2006011574827244
S 1435.804738949457 1203.3488848288007 1435.804738949457 1181.761606724972
s 5.281993578596395 -6.2006011574827244 11.482594736079118 -6.2006011574827244
S 1458.7699284216153 1160.174328621143 1458.7699284216153 1181.761606724972
z" fill="none" stroke="none"></path>
<use xlink:href="#path-ar3oknvycr4-2" x="0" y="0" stroke="#fb793f">
  <animateMotion begin="-4.457694041110724s" dur="19.960640378735512s" keyPoints="1;0" keyTimes="0;1" repeatCount="indefinite" calcMode="linear">
    <mpath xlink:href="#path13"></mpath>
  </animateMotion>
</use><path id="path14" d="M 1598.6635695590257 401.57774335860256
c 0 47.23401107999563 -11.557258030211695 13.567215948509384 -25.12447397872108 13.567215948509384
S 1548.4146216015838 448.8117544385982 1548.4146216015838 401.57774335860256
s 11.557258030211695 -13.567215948509384 25.12447397872108 -13.567215948509384
S 1598.6635695590257 354.3437322786069 1598.6635695590257 401.57774335860256
z" fill="none" stroke="none"></path>
<use xlink:href="#path-ar3oknvycr4-1" x="0" y="0" stroke="#fb793f">
  <animateMotion begin="-1.1095638112040795s" dur="13.056722920357316s" keyPoints="0;1" keyTimes="0;1" repeatCount="indefinite" calcMode="linear">
    <mpath xlink:href="#path14"></mpath>
  </animateMotion>
</use><path id="path15" d="M 1654.0302351805158 931.7282940736854
c 0 42.44218098387597 -10.384788964139863 12.190839218772885 -22.575628182912748 12.190839218772885
S 1608.87897881469 974.1704750575614 1608.87897881469 931.7282940736854
s 10.384788964139863 -12.190839218772885 22.575628182912748 -12.190839218772885
S 1654.0302351805158 889.2861130898095 1654.0302351805158 931.7282940736854
z" fill="none" stroke="none"></path>
<use xlink:href="#path-ar3oknvycr4-2" x="0" y="0" stroke="#14dc93">
  <animateMotion begin="-1.6282197500131257s" dur="10.563221818548595s" keyPoints="1;0" keyTimes="0;1" repeatCount="indefinite" calcMode="linear">
    <mpath xlink:href="#path15"></mpath>
  </animateMotion>
</use><path id="path16" d="M 1727.4008557889267 1732.4696198237152
c 0 43.78195286189125 -10.712605487484028 12.575667311394296 -23.288272798878324 12.575667311394296
S 1680.82431019117 1776.2515726856066 1680.82431019117 1732.4696198237152
s 10.712605487484028 -12.575667311394296 23.288272798878324 -12.575667311394296
S 1727.4008557889267 1688.6876669618239 1727.4008557889267 1732.4696198237152
z" fill="none" stroke="none"></path>
<use xlink:href="#path-ar3oknvycr4-2" x="0" y="0" stroke="#14dc93">
  <animateMotion begin="-3.938348180963774s" dur="11.300663471936861s" keyPoints="1;0" keyTimes="0;1" repeatCount="indefinite" calcMode="linear">
    <mpath xlink:href="#path16"></mpath>
  </animateMotion>
</use><path id="path17" d="M 1867.8671058548555 1523.6169102973352
c 0 29.220295559845034 -7.149646785919529 8.393063618253361 -15.54271040417289 8.393063618253361
S 1836.78168504651 1552.8372058571802 1836.78168504651 1523.6169102973352
s 7.149646785919529 -8.393063618253361 15.54271040417289 -8.393063618253361
S 1867.8671058548555 1494.3966147374902 1867.8671058548555 1523.6169102973352
z" fill="none" stroke="none"></path>
<use xlink:href="#path-ar3oknvycr4-3" x="0" y="0" stroke="#bbddff">
  <animateMotion begin="-1.6793712192821952s" dur="16.267332690235982s" keyPoints="1;0" keyTimes="0;1" repeatCount="indefinite" calcMode="linear">
    <mpath xlink:href="#path17"></mpath>
  </animateMotion>
</use></g>
</svg>