<?xml version="1.0" encoding="utf-8"?>
<svg xmlns="http://www.w3.org/2000/svg" xmlns:xlink="http://www.w3.org/1999/xlink" style="margin: auto; background: rgb(246, 245, 251); display: block; z-index: 1; position: relative; shape-rendering: auto;" width="1920" height="2000" preserveAspectRatio="xMidYMid" viewBox="0 0 1920 2000">
<g transform=""><defs>
  <path id="path-9csqzr0w0gi-1" d="M-35 -35L35 -35L35 35L-35 35Z" fill="none" stroke="inherit" stroke-width="4.333333333333334" transform="scale(0.3)"></path>
  <path id="path-9csqzr0w0gi-2" d="M0 -37A37 37 0 0 1 0 37A37 37 0 0 1 0 -37" fill="none" stroke="inherit" stroke-width="4.333333333333334" transform="scale(0.3)"></path>
  <path id="path-9csqzr0w0gi-3" d="M0 -34.641L40 34.641L-40 34.641Z" fill="none" stroke="inherit" stroke-width="4.333333333333334" transform="scale(0.3)"></path>
</defs><path id="path0" d="M 49.34375080228372 1843.7302370862208
c 0 42.52271157874734 -10.404493258629667 12.213970347087002 -22.61846360571667 12.213970347087002
S 4.106823590850386 1886.252948664968 4.106823590850386 1843.7302370862208
s 10.404493258629667 -12.213970347087002 22.61846360571667 -12.213970347087002
S 49.34375080228372 1801.2075255074735 49.34375080228372 1843.7302370862208
z" fill="none" stroke="none"></path>
<use xlink:href="#path-9csqzr0w0gi-3" x="0" y="0" stroke="#14dc93">
  <animateMotion begin="-2.2178115109632923s" dur="17.840566939970444s" keyPoints="1;0" keyTimes="0;1" repeatCount="indefinite" calcMode="linear">
    <mpath xlink:href="#path0"></mpath>
  </animateMotion>
</use><path id="path1" d="M 155.55026435152638 1871.9018102588361
c 0 35.0535811746959 -8.576940074659635 10.068581826774356 -18.64552190143399 10.068581826774356
S 118.25922054865839 1906.955391433532 118.25922054865839 1871.9018102588361
s 8.576940074659635 -10.068581826774356 18.64552190143399 -10.068581826774356
S 155.55026435152638 1836.8482290841403 155.55026435152638 1871.9018102588361
z" fill="none" stroke="none"></path>
<use xlink:href="#path-9csqzr0w0gi-1" x="0" y="0" stroke="#14dc93">
  <animateMotion begin="-1.974023962094229s" dur="18.586570003383592s" keyPoints="1;0" keyTimes="0;1" repeatCount="indefinite" calcMode="linear">
    <mpath xlink:href="#path1"></mpath>
  </animateMotion>
</use><path id="path2" d="M 318.262203801165 1062.0373884155113
c 0 62.810323439579264 -15.368483394790669 18.04126311562383 -33.4097465104145 18.04126311562383
S 251.44271078033603 1124.8477118550904 251.44271078033603 1062.0373884155113
s 15.368483394790669 -18.04126311562383 33.4097465104145 -18.04126311562383
S 318.262203801165 999.227064975932 318.262203801165 1062.0373884155113
z" fill="none" stroke="none"></path>
<use xlink:href="#path-9csqzr0w0gi-2" x="0" y="0" stroke="#14dc93">
  <animateMotion begin="-2.512921043591697s" dur="14.142194554274262s" keyPoints="1;0" keyTimes="0;1" repeatCount="indefinite" calcMode="linear">
    <mpath xlink:href="#path2"></mpath>
  </animateMotion>
</use><path id="path3" d="M 368.6958478439189 628.6804195467345
c 0 19.32915819140291 -4.72947487661986 5.551992246466794 -10.281467123086653 5.551992246466794
S 348.1329135977456 648.0095777381374 348.1329135977456 628.6804195467345
s 4.72947487661986 -5.551992246466794 10.281467123086653 -5.551992246466794
S 368.6958478439189 609.3512613553315 368.6958478439189 628.6804195467345
z" fill="none" stroke="none"></path>
<use xlink:href="#path-9csqzr0w0gi-1" x="0" y="0" stroke="#fb793f">
  <animateMotion begin="-2.0788052821918246s" dur="11.910290937995443s" keyPoints="1;0" keyTimes="0;1" repeatCount="indefinite" calcMode="linear">
    <mpath xlink:href="#path3"></mpath>
  </animateMotion>
</use><path id="path4" d="M 532.4799479377939 878.1445541890413
c 0 36.844557208348114 -9.01515761480858 10.58301111303616 -19.59816872784474 10.58301111303616
S 493.28361048210445 914.9891113973894 493.28361048210445 878.1445541890413
s 9.01515761480858 -10.58301111303616 19.59816872784474 -10.58301111303616
S 532.4799479377939 841.2999969806932 532.4799479377939 878.1445541890413
z" fill="none" stroke="none"></path>
<use xlink:href="#path-9csqzr0w0gi-2" x="0" y="0" stroke="#14dc93">
  <animateMotion begin="-2.720914577359551s" dur="15.089780225957742s" keyPoints="0;1" keyTimes="0;1" repeatCount="indefinite" calcMode="linear">
    <mpath xlink:href="#path4"></mpath>
  </animateMotion>
</use><path id="path5" d="M 677.9777676088036 877.7026268212367
c 0 62.07259149238867 -15.187974514095098 17.82936138611164 -33.01733590020674 17.82936138611164
S 611.9430958083901 939.7752183136254 611.9430958083901 877.7026268212367
s 15.187974514095098 -17.82936138611164 33.01733590020674 -17.82936138611164
S 677.9777676088036 815.630035328848 677.9777676088036 877.7026268212367
z" fill="none" stroke="none"></path>
<use xlink:href="#path-9csqzr0w0gi-2" x="0" y="0" stroke="#bbddff">
  <animateMotion begin="-0.49423712986255364s" dur="14.90524770508751s" keyPoints="0;1" keyTimes="0;1" repeatCount="indefinite" calcMode="linear">
    <mpath xlink:href="#path5"></mpath>
  </animateMotion>
</use><path id="path6" d="M 669.2780810440404 688.0658107258051
c 0 30.45748498236928 -7.452363346749929 8.748426537489049 -16.20078988423898 8.748426537489049
S 636.8765012755625 718.5232957081744 636.8765012755625 688.0658107258051
s 7.452363346749929 -8.748426537489049 16.20078988423898 -8.748426537489049
S 669.2780810440404 657.6083257434359 669.2780810440404 688.0658107258051
z" fill="none" stroke="none"></path>
<use xlink:href="#path-9csqzr0w0gi-1" x="0" y="0" stroke="#14dc93">
  <animateMotion begin="-4.607194056954875s" dur="18.47261083596157s" keyPoints="0;1" keyTimes="0;1" repeatCount="indefinite" calcMode="linear">
    <mpath xlink:href="#path6"></mpath>
  </animateMotion>
</use><path id="path7" d="M 814.5276922170438 807.6908363762676
c 0 45.735553313282104 -11.190614108569024 13.13680786658103 -24.327421975150052 13.13680786658103
S 765.8728482667436 853.4263896895498 765.8728482667436 807.6908363762676
s 11.190614108569024 -13.13680786658103 24.327421975150052 -13.13680786658103
S 814.5276922170438 761.9552830629855 814.5276922170438 807.6908363762676
z" fill="none" stroke="none"></path>
<use xlink:href="#path-9csqzr0w0gi-3" x="0" y="0" stroke="#14dc93">
  <animateMotion begin="-4.0782838234603105s" dur="19.900312642082667s" keyPoints="1;0" keyTimes="0;1" repeatCount="indefinite" calcMode="linear">
    <mpath xlink:href="#path7"></mpath>
  </animateMotion>
</use><path id="path8" d="M 891.7617736577407 53.262699758995126
c 0 37.876514638634674 -9.267657837112738 10.879424417480172 -20.14708225459291 10.879424417480172
S 851.467609148555 91.1392143976298 851.467609148555 53.262699758995126
s 9.267657837112738 -10.879424417480172 20.14708225459291 -10.879424417480172
S 891.7617736577407 15.386185120360452 891.7617736577407 53.262699758995126
z" fill="none" stroke="none"></path>
<use xlink:href="#path-9csqzr0w0gi-1" x="0" y="0" stroke="#14dc93">
  <animateMotion begin="-2.853798012397315s" dur="19.604458580548318s" keyPoints="1;0" keyTimes="0;1" repeatCount="indefinite" calcMode="linear">
    <mpath xlink:href="#path8"></mpath>
  </animateMotion>
</use><path id="path9" d="M 983.5700185159975 1742.605172846004
c 0 25.383338071761465 -6.2108167622395065 7.290958807846379 -13.501775570085886 7.290958807846379
S 956.5664673758257 1767.9885109177656 956.5664673758257 1742.605172846004
s 6.2108167622395065 -7.290958807846379 13.501775570085886 -7.290958807846379
S 983.5700185159975 1717.2218347742426 983.5700185159975 1742.605172846004
z" fill="none" stroke="none"></path>
<use xlink:href="#path-9csqzr0w0gi-1" x="0" y="0" stroke="#14dc93">
  <animateMotion begin="-2.828020370260419s" dur="13.61462563980332s" keyPoints="0;1" keyTimes="0;1" repeatCount="indefinite" calcMode="linear">
    <mpath xlink:href="#path9"></mpath>
  </animateMotion>
</use><path id="path10" d="M 1192.8584473686474 1782.3016439498808
c 0 44.547602182296636 -10.899945214817262 12.79558786087244 -23.695533075689703 12.79558786087244
S 1145.4673812172678 1826.8492461321775 1145.4673812172678 1782.3016439498808
s 10.899945214817262 -12.79558786087244 23.695533075689703 -12.79558786087244
S 1192.8584473686474 1737.754041767584 1192.8584473686474 1782.3016439498808
z" fill="none" stroke="none"></path>
<use xlink:href="#path-9csqzr0w0gi-3" x="0" y="0" stroke="#fb793f">
  <animateMotion begin="-1.2200666404517235s" dur="13.543455028437679s" keyPoints="1;0" keyTimes="0;1" repeatCount="indefinite" calcMode="linear">
    <mpath xlink:href="#path10"></mpath>
  </animateMotion>
</use><path id="path11" d="M 1250.5236808310829 1697.4396694099062
c 0 38.43700430560486 -9.404798925839486 11.04041613033331 -20.445215056172795 11.04041613033331
S 1209.6332507187371 1735.876673715511 1209.6332507187371 1697.4396694099062
s 9.404798925839486 -11.04041613033331 20.445215056172795 -11.04041613033331
S 1250.5236808310829 1659.0026651043013 1250.5236808310829 1697.4396694099062
z" fill="none" stroke="none"></path>
<use xlink:href="#path-9csqzr0w0gi-1" x="0" y="0" stroke="#14dc93">
  <animateMotion begin="-4.571350470325402s" dur="12.212440506035776s" keyPoints="0;1" keyTimes="0;1" repeatCount="indefinite" calcMode="linear">
    <mpath xlink:href="#path11"></mpath>
  </animateMotion>
</use><path id="path12" d="M 1369.2338091853824 1347.0836956927078
c 0 64.42521298036418 -15.763615942004 18.50511436670035 -34.26873030870435 18.50511436670035
S 1300.6963485679737 1411.508908673072 1300.6963485679737 1347.0836956927078
s 15.763615942004 -18.50511436670035 34.26873030870435 -18.50511436670035
S 1369.2338091853824 1282.6584827123436 1369.2338091853824 1347.0836956927078
z" fill="none" stroke="none"></path>
<use xlink:href="#path-9csqzr0w0gi-2" x="0" y="0" stroke="#fb793f">
  <animateMotion begin="-2.8052055556926803s" dur="18.070815579922975s" keyPoints="0;1" keyTimes="0;1" repeatCount="indefinite" calcMode="linear">
    <mpath xlink:href="#path12"></mpath>
  </animateMotion>
</use><path id="path13" d="M 1497.2626955572787 1433.9449917862203
c 0 57.89891024091224 -14.166754633414694 16.6305380479216 -30.797292681336295 16.6305380479216
S 1435.668110194606 1491.8439020271326 1435.668110194606 1433.9449917862203
s 14.166754633414694 -16.6305380479216 30.797292681336295 -16.6305380479216
S 1497.2626955572787 1376.046081545308 1497.2626955572787 1433.9449917862203
z" fill="none" stroke="none"></path>
<use xlink:href="#path-9csqzr0w0gi-1" x="0" y="0" stroke="#bbddff">
  <animateMotion begin="-0.8884587002394084s" dur="13.751390751312195s" keyPoints="1;0" keyTimes="0;1" repeatCount="indefinite" calcMode="linear">
    <mpath xlink:href="#path13"></mpath>
  </animateMotion>
</use><path id="path14" d="M 1518.4385356939413 1932.1792787052434
c 0 46.86066480083482 -11.465907344885114 13.459978187473832 -24.925885532358944 13.459978187473832
S 1468.5867646292234 1979.0399435060783 1468.5867646292234 1932.1792787052434
s 11.465907344885114 -13.459978187473832 24.925885532358944 -13.459978187473832
S 1518.4385356939413 1885.3186139044085 1518.4385356939413 1932.1792787052434
z" fill="none" stroke="none"></path>
<use xlink:href="#path-9csqzr0w0gi-2" x="0" y="0" stroke="#fb793f">
  <animateMotion begin="-0.8529106386563856s" dur="19.07917445395742s" keyPoints="0;1" keyTimes="0;1" repeatCount="indefinite" calcMode="linear">
    <mpath xlink:href="#path14"></mpath>
  </animateMotion>
</use><path id="path15" d="M 1628.2749132101483 1127.8908073989028
c 0 43.084043961392155 -10.541840543744888 12.375204116570087 -22.917044660314975 12.375204116570087
S 1582.4408238895182 1170.974851360295 1582.4408238895182 1127.8908073989028
s 10.541840543744888 -12.375204116570087 22.917044660314975 -12.375204116570087
S 1628.2749132101483 1084.8067634375107 1628.2749132101483 1127.8908073989028
z" fill="none" stroke="none"></path>
<use xlink:href="#path-9csqzr0w0gi-1" x="0" y="0" stroke="#bbddff">
  <animateMotion begin="-0.2297796873952307s" dur="13.87578569362963s" keyPoints="1;0" keyTimes="0;1" repeatCount="indefinite" calcMode="linear">
    <mpath xlink:href="#path15"></mpath>
  </animateMotion>
</use><path id="path16" d="M 1717.8018516310153 1667.5124690250004
c 0 40.49166226270575 -9.907534383428002 11.630583841415481 -21.538118224843483 11.630583841415481
S 1674.7256151813285 1708.0041312877063 1674.7256151813285 1667.5124690250004
s 9.907534383428002 -11.630583841415481 21.538118224843483 -11.630583841415481
S 1717.8018516310153 1627.0208067622946 1717.8018516310153 1667.5124690250004
z" fill="none" stroke="none"></path>
<use xlink:href="#path-9csqzr0w0gi-1" x="0" y="0" stroke="#14dc93">
  <animateMotion begin="-1.8154361635172567s" dur="12.759832274388534s" keyPoints="1;0" keyTimes="0;1" repeatCount="indefinite" calcMode="linear">
    <mpath xlink:href="#path16"></mpath>
  </animateMotion>
</use><path id="path17" d="M 1845.7920996370997 1765.3736963682538
c 0 44.066572547025785 -10.782246474272265 12.657419774145705 -23.43966624841797 12.657419774145705
S 1798.9127671402637 1809.4402689152796 1798.9127671402637 1765.3736963682538
s 10.782246474272265 -12.657419774145705 23.43966624841797 -12.657419774145705
S 1845.7920996370997 1721.307123821228 1845.7920996370997 1765.3736963682538
z" fill="none" stroke="none"></path>
<use xlink:href="#path-9csqzr0w0gi-3" x="0" y="0" stroke="#bbddff">
  <animateMotion begin="-1.3677557738251256s" dur="14.697398642185497s" keyPoints="1;0" keyTimes="0;1" repeatCount="indefinite" calcMode="linear">
    <mpath xlink:href="#path17"></mpath>
  </animateMotion>
</use></g>
</svg>